# xmcd CD database file
#
# Track frame offsets:
#	150
#	28302
#	46695
#	67925
#	89402
#	156715
#	178887
#	226942
#	255005
#	280840
#	299615
#
# Disc length: 4366 seconds
#
# Revision: 0
# Processed by: cddbd v1.5PL3 Copyright (c) Steve Scherf et al.
# Submitted via: CDex 1.50
#
DISCID=99110c0b
DTITLE=Roberto Aymes - Antologia III
DYEAR=1999
DGENRE=Jazz
TTITLE0=Stormy monday
TTITLE1=Be-Bop
TTITLE2=Di por qué
TTITLE3=Blue Bossa
TTITLE4=To impro or not to Jazz
TTITLE5=Abril
TTITLE6=Ascendant
TTITLE7=Mellow Moods
TTITLE8=Eloise 75
TTITLE9=Big Band Etude
TTITLE10=Nordeste
EXTD=YEAR: 1999
EXTT0=
EXTT1=
EXTT2=
EXTT3=
EXTT4=
EXTT5=
EXTT6=
EXTT7=
EXTT8=
EXTT9=
EXTT10=
PLAYORDER=
